<svg width="2940" height="1960" xmlns="http://www.w3.org/2000/svg">
  <defs>
    <!-- Modern Tech Gradient -->
    <linearGradient id="techGradient" x1="0%" y1="0%" x2="100%" y2="100%">
      <stop offset="0%" style="stop-color:#0f0f23;stop-opacity:1" />
      <stop offset="25%" style="stop-color:#1a1a3a;stop-opacity:1" />
      <stop offset="50%" style="stop-color:#2d2d5c;stop-opacity:1" />
      <stop offset="75%" style="stop-color:#3b82f6;stop-opacity:1" />
      <stop offset="100%" style="stop-color:#60a5fa;stop-opacity:1" />
    </linearGradient>
    
    <!-- Geometric Pattern -->
    <pattern id="techPattern" x="0" y="0" width="100" height="100" patternUnits="userSpaceOnUse">
      <circle cx="20" cy="20" r="2" fill="#60a5fa" opacity="0.3"/>
      <circle cx="60" cy="60" r="1.5" fill="#3b82f6" opacity="0.2"/>
      <circle cx="80" cy="30" r="1" fill="#60a5fa" opacity="0.4"/>
      <line x1="20" y1="20" x2="60" y2="60" stroke="#3b82f6" stroke-width="0.5" opacity="0.2"/>
      <line x1="60" y1="60" x2="80" y2="30" stroke="#60a5fa" stroke-width="0.5" opacity="0.3"/>
    </pattern>
    
    <!-- Light Rays -->
    <radialGradient id="lightRays" cx="50%" cy="20%" r="80%">
      <stop offset="0%" style="stop-color:#60a5fa;stop-opacity:0.3" />
      <stop offset="50%" style="stop-color:#3b82f6;stop-opacity:0.1" />
      <stop offset="100%" style="stop-color:#0f0f23;stop-opacity:0" />
    </radialGradient>
  </defs>
  
  <!-- Base gradient background -->
  <rect width="100%" height="100%" fill="url(#techGradient)"/>
  
  <!-- Geometric pattern overlay -->
  <rect width="100%" height="100%" fill="url(#techPattern)"/>
  
  <!-- Light rays effect -->
  <rect width="100%" height="100%" fill="url(#lightRays)"/>
  
  <!-- Modern tech city silhouette -->
  <g transform="translate(0, 1400)">
    <!-- Building 1 -->
    <rect x="100" y="0" width="80" height="560" fill="#1a1a3a" opacity="0.8"/>
    <rect x="110" y="10" width="10" height="10" fill="#60a5fa" opacity="0.6"/>
    <rect x="130" y="20" width="10" height="10" fill="#3b82f6" opacity="0.7"/>
    <rect x="150" y="15" width="10" height="10" fill="#60a5fa" opacity="0.5"/>
    
    <!-- Building 2 -->
    <rect x="200" y="-100" width="120" height="660" fill="#2d2d5c" opacity="0.9"/>
    <rect x="220" y="20" width="15" height="15" fill="#60a5fa" opacity="0.8"/>
    <rect x="250" y="40" width="15" height="15" fill="#3b82f6" opacity="0.6"/>
    <rect x="280" y="30" width="15" height="15" fill="#60a5fa" opacity="0.7"/>
    
    <!-- Building 3 -->
    <rect x="350" y="50" width="100" height="510" fill="#1a1a3a" opacity="0.8"/>
    <rect x="370" y="70" width="12" height="12" fill="#3b82f6" opacity="0.6"/>
    <rect x="400" y="90" width="12" height="12" fill="#60a5fa" opacity="0.8"/>
    
    <!-- More buildings extending to create a city skyline -->
    <rect x="500" y="-50" width="90" height="610" fill="#2d2d5c" opacity="0.7"/>
    <rect x="620" y="80" width="110" height="480" fill="#1a1a3a" opacity="0.8"/>
    <rect x="750" y="-20" width="85" height="580" fill="#2d2d5c" opacity="0.9"/>
    <rect x="860" y="100" width="95" height="460" fill="#1a1a3a" opacity="0.7"/>
  </g>
  
  <!-- Digital rain effect -->
  <g opacity="0.3">
    <line x1="200" y1="0" x2="205" y2="400" stroke="#60a5fa" stroke-width="1"/>
    <line x1="500" y1="0" x2="505" y2="600" stroke="#3b82f6" stroke-width="1"/>
    <line x1="800" y1="0" x2="805" y2="300" stroke="#60a5fa" stroke-width="1"/>
    <line x1="1200" y1="0" x2="1205" y2="500" stroke="#3b82f6" stroke-width="1"/>
    <line x1="1600" y1="0" x2="1605" y2="350" stroke="#60a5fa" stroke-width="1"/>
    <line x1="2000" y1="0" x2="2005" y2="450" stroke="#3b82f6" stroke-width="1"/>
  </g>
  
  <!-- Floating particles -->
  <g opacity="0.4">
    <circle cx="300" cy="200" r="3" fill="#60a5fa">
      <animate attributeName="cy" values="200;180;200" dur="3s" repeatCount="indefinite"/>
    </circle>
    <circle cx="800" cy="300" r="2" fill="#3b82f6">
      <animate attributeName="cy" values="300;280;300" dur="4s" repeatCount="indefinite"/>
    </circle>
    <circle cx="1500" cy="400" r="2.5" fill="#60a5fa">
      <animate attributeName="cy" values="400;380;400" dur="3.5s" repeatCount="indefinite"/>
    </circle>
    <circle cx="2200" cy="250" r="2" fill="#3b82f6">
      <animate attributeName="cy" values="250;230;250" dur="4.5s" repeatCount="indefinite"/>
    </circle>
  </g>
</svg>
